<svg width="23" height="277" viewBox="0 0 23 277" fill="none" xmlns="http://www.w3.org/2000/svg">
<path d="M11.609 6.874L11 6.874L11 1.463L20.905 1.463L20.905 2.184L11.609 2.184L11.609 6.874ZM15.956 20.9425C15.1907 20.9425 14.4953 20.8281 13.87 20.5995C13.2493 20.3708 12.7173 20.0488 12.274 19.6335C11.8353 19.2181 11.4947 18.7188 11.252 18.1355C11.014 17.5568 10.895 16.9175 10.895 16.2175C10.895 15.5175 11.014 14.8781 11.252 14.2995C11.4947 13.7208 11.8353 13.2238 12.274 12.8085C12.7173 12.3931 13.2493 12.0711 13.87 11.8425C14.4953 11.6138 15.1907 11.4995 15.956 11.4995C16.7167 11.4995 17.4073 11.6138 18.028 11.8425C18.6533 12.0711 19.1853 12.3931 19.624 12.8085C20.0673 13.2238 20.4103 13.7208 20.653 14.2995C20.8957 14.8781 21.017 15.5175 21.017 16.2175C21.017 16.9175 20.8957 17.5568 20.653 18.1355C20.415 18.7188 20.0743 19.2181 19.631 19.6335C19.1877 20.0488 18.6533 20.3708 18.028 20.5995C17.4073 20.8281 16.7167 20.9425 15.956 20.9425ZM15.956 20.2005C16.6467 20.2005 17.2673 20.1048 17.818 19.9135C18.3687 19.7221 18.8353 19.4515 19.218 19.1015C19.6007 18.7515 19.8923 18.3315 20.093 17.8415C20.2983 17.3515 20.401 16.8101 20.401 16.2175C20.401 15.6295 20.2983 15.0905 20.093 14.6005C19.8923 14.1105 19.6007 13.6881 19.218 13.3335C18.8353 12.9835 18.3687 12.7105 17.818 12.5145C17.2673 12.3231 16.6467 12.2275 15.956 12.2275C15.2607 12.2275 14.6377 12.3231 14.087 12.5145C13.541 12.7105 13.0767 12.9835 12.694 13.3335C12.3113 13.6881 12.0197 14.1105 11.819 14.6005C11.6183 15.0905 11.518 15.6295 11.518 16.2175C11.518 16.8101 11.6183 17.3515 11.819 17.8415C12.0197 18.3315 12.3113 18.7515 12.694 19.1015C13.0767 19.4515 13.541 19.7221 14.087 19.9135C14.6377 20.1048 15.2607 20.2005 15.956 20.2005ZM20.905 35.0617L11 35.0617L11 34.7257C11 34.665 11.0093 34.6137 11.028 34.5717C11.0513 34.5344 11.0887 34.497 11.14 34.4597L19.736 28.0267C19.596 28.0407 19.463 28.0477 19.337 28.0477L11 28.0477L11 27.4177L20.905 27.4177L20.905 27.7747C20.905 27.84 20.8957 27.889 20.877 27.9217C20.863 27.959 20.828 27.9987 20.772 28.0407L12.197 34.4597C12.337 34.4457 12.47 34.4387 12.596 34.4387L20.905 34.4387L20.905 35.0617ZM15.494 50.096L11.973 50.096C11.623 49.6014 11.3547 49.074 11.168 48.514C10.9813 47.954 10.888 47.324 10.888 46.624C10.888 45.84 11.007 45.1354 11.245 44.51C11.4877 43.8847 11.8283 43.3504 12.267 42.907C12.7103 42.4684 13.2447 42.13 13.87 41.892C14.4953 41.6587 15.1907 41.542 15.956 41.542C16.7213 41.542 17.4143 41.6564 18.035 41.885C18.6603 42.1184 19.1923 42.4497 19.631 42.879C20.0743 43.313 20.415 43.8357 20.653 44.447C20.8957 45.0584 21.017 45.7467 21.017 46.512C21.017 46.89 20.9913 47.2377 20.94 47.555C20.8887 47.877 20.8117 48.1757 20.709 48.451C20.611 48.7264 20.4873 48.983 20.338 49.221C20.1933 49.459 20.0253 49.6877 19.834 49.907L19.526 49.711C19.414 49.6457 19.3883 49.5477 19.449 49.417C19.477 49.347 19.5423 49.2467 19.645 49.116C19.7477 48.9854 19.855 48.8057 19.967 48.577C20.079 48.3484 20.1793 48.0637 20.268 47.723C20.3567 47.387 20.401 46.9764 20.401 46.491C20.401 45.847 20.2983 45.2637 20.093 44.741C19.8877 44.223 19.5937 43.7797 19.211 43.411C18.8283 43.047 18.3617 42.7647 17.811 42.564C17.2603 42.368 16.642 42.27 15.956 42.27C15.2607 42.27 14.6353 42.368 14.08 42.564C13.5247 42.7647 13.0533 43.0517 12.666 43.425C12.2787 43.803 11.9823 44.2604 11.777 44.797C11.5717 45.3337 11.469 45.938 11.469 46.61C11.469 46.904 11.4877 47.1747 11.525 47.422C11.5623 47.674 11.6137 47.912 11.679 48.136C11.749 48.3647 11.833 48.584 11.931 48.794C12.0337 49.0087 12.148 49.2257 12.274 49.445L14.941 49.445L14.941 47.548C14.941 47.4967 14.9573 47.4524 14.99 47.415C15.0227 47.3824 15.06 47.366 15.102 47.366L15.494 47.366L15.494 50.096ZM20.296 70.6979L20.296 67.2189L11 67.2189L11 66.4979L20.296 66.4979L20.296 62.9979L20.905 62.9979L20.905 70.6979L20.296 70.6979ZM11.595 82.5153L11 82.5013L11 76.5653L20.905 76.5653L20.905 82.5013L20.31 82.5013L20.31 77.2863L16.306 77.2863L16.306 81.6263L15.725 81.6263L15.725 77.2863L11.595 77.2863L11.595 82.5153ZM16.012 91.3224C16.012 91.7611 16.0633 92.1531 16.166 92.4984C16.2733 92.8484 16.425 93.1424 16.621 93.3804C16.817 93.6231 17.0527 93.8074 17.328 93.9334C17.6033 94.0594 17.9137 94.1224 18.259 94.1224C18.9637 94.1224 19.4863 93.8914 19.827 93.4294C20.1677 92.9721 20.338 92.3024 20.338 91.4204L20.338 89.6074L16.012 89.6074L16.012 91.3224ZM11 95.7184L11 95.1024C11 95.0231 11.0117 94.9554 11.035 94.8994C11.063 94.8481 11.112 94.7991 11.182 94.7524L15.2 91.5744C15.2513 91.5371 15.2957 91.4974 15.333 91.4554C15.3703 91.4181 15.3983 91.3738 15.417 91.3224C15.4403 91.2758 15.4567 91.2174 15.466 91.1474C15.4753 91.0821 15.48 91.0004 15.48 90.9024L15.48 89.6074L11 89.6074L11 88.8864L20.905 88.8864L20.905 91.4204C20.905 92.5591 20.6833 93.4108 20.24 93.9754C19.8013 94.5448 19.155 94.8294 18.301 94.8294C17.923 94.8294 17.5777 94.7641 17.265 94.6334C16.9523 94.5028 16.677 94.3138 16.439 94.0664C16.2057 93.8238 16.0143 93.5274 15.865 93.1774C15.7157 92.8321 15.6153 92.4424 15.564 92.0084C15.494 92.1204 15.4007 92.2208 15.284 92.3094L11 95.7184ZM20.905 111.376L11 111.376L11 110.753L19.442 110.753C19.5633 110.753 19.6917 110.76 19.827 110.774L12.904 106.875C12.7827 106.81 12.722 106.717 12.722 106.595L12.722 106.483C12.722 106.362 12.7827 106.269 12.904 106.203L19.841 102.199C19.701 102.213 19.568 102.22 19.442 102.22L11 102.22L11 101.59L20.905 101.59L20.905 102.087C20.905 102.153 20.898 102.204 20.884 102.241C20.87 102.279 20.8327 102.316 20.772 102.353L13.884 106.35C13.7533 106.42 13.6133 106.481 13.464 106.532C13.5387 106.56 13.611 106.591 13.681 106.623C13.7557 106.656 13.8257 106.691 13.891 106.728L20.772 110.613C20.8327 110.651 20.87 110.688 20.884 110.725C20.898 110.767 20.905 110.821 20.905 110.886L20.905 111.376ZM12.666 133.653C12.666 133.7 12.6497 133.739 12.617 133.772L12.316 134.052C12.0967 133.847 11.8983 133.623 11.721 133.38C11.5483 133.142 11.399 132.878 11.273 132.589C11.1517 132.304 11.0583 131.989 10.993 131.644C10.923 131.303 10.888 130.928 10.888 130.517C10.888 129.831 11.007 129.201 11.245 128.627C11.4877 128.058 11.8283 127.568 12.267 127.157C12.7103 126.746 13.2447 126.427 13.87 126.198C14.4953 125.974 15.1907 125.862 15.956 125.862C16.7073 125.862 17.3933 125.979 18.014 126.212C18.6347 126.445 19.1667 126.772 19.61 127.192C20.058 127.612 20.4033 128.116 20.646 128.704C20.8933 129.292 21.017 129.941 21.017 130.65C21.017 131.327 20.912 131.926 20.702 132.449C20.492 132.972 20.1957 133.448 19.813 133.877L19.498 133.66C19.442 133.623 19.414 133.564 19.414 133.485C19.414 133.429 19.4653 133.338 19.568 133.212C19.6707 133.086 19.7827 132.911 19.904 132.687C20.03 132.463 20.1443 132.183 20.247 131.847C20.3497 131.516 20.401 131.117 20.401 130.65C20.401 130.053 20.2983 129.504 20.093 129.005C19.8877 128.51 19.5937 128.083 19.211 127.724C18.8283 127.369 18.3617 127.092 17.811 126.891C17.2603 126.69 16.642 126.59 15.956 126.59C15.256 126.59 14.6307 126.69 14.08 126.891C13.5293 127.096 13.0627 127.376 12.68 127.731C12.302 128.086 12.0103 128.503 11.805 128.984C11.6043 129.469 11.504 129.992 11.504 130.552C11.504 130.907 11.5273 131.222 11.574 131.497C11.6207 131.777 11.6907 132.034 11.784 132.267C11.8773 132.5 11.9917 132.717 12.127 132.918C12.2623 133.119 12.421 133.317 12.603 133.513C12.6217 133.536 12.6357 133.56 12.645 133.583C12.659 133.606 12.666 133.63 12.666 133.653ZM14.598 145.508L19.603 143.492C19.7663 143.422 19.9623 143.354 20.191 143.289C20.079 143.261 19.9717 143.231 19.869 143.198C19.771 143.165 19.68 143.13 19.596 143.093L14.598 141.077L14.598 145.508ZM11 147.699L11 147.146C11 147.081 11.0163 147.027 11.049 146.985C11.0863 146.943 11.133 146.91 11.189 146.887L14.066 145.725L14.066 140.86L11.189 139.698C11.1377 139.679 11.0933 139.647 11.056 139.6C11.0187 139.553 11 139.497 11 139.432L11 138.886L20.905 142.939L20.905 143.646L11 147.699ZM16.012 155.977C16.012 156.415 16.0633 156.807 16.166 157.153C16.2733 157.503 16.425 157.797 16.621 158.035C16.817 158.277 17.0527 158.462 17.328 158.588C17.6033 158.714 17.9137 158.777 18.259 158.777C18.9637 158.777 19.4863 158.546 19.827 158.084C20.1677 157.626 20.338 156.957 20.338 156.075L20.338 154.262L16.012 154.262L16.012 155.977ZM11 160.373L11 159.757C11 159.677 11.0117 159.61 11.035 159.554C11.063 159.502 11.112 159.453 11.182 159.407L15.2 156.229C15.2513 156.191 15.2957 156.152 15.333 156.11C15.3703 156.072 15.3983 156.028 15.417 155.977C15.4403 155.93 15.4567 155.872 15.466 155.802C15.4753 155.736 15.48 155.655 15.48 155.557L15.48 154.262L11 154.262L11 153.541L20.905 153.541L20.905 156.075C20.905 157.213 20.6833 158.065 20.24 158.63C19.8013 159.199 19.155 159.484 18.301 159.484C17.923 159.484 17.5777 159.418 17.265 159.288C16.9523 159.157 16.677 158.968 16.439 158.721C16.2057 158.478 16.0143 158.182 15.865 157.832C15.7157 157.486 15.6153 157.097 15.564 156.663C15.494 156.775 15.4007 156.875 15.284 156.964L11 160.373ZM11.595 172.195L11 172.181L11 166.245L20.905 166.245L20.905 172.181L20.31 172.181L20.31 166.966L16.306 166.966L16.306 171.306L15.725 171.306L15.725 166.966L11.595 166.966L11.595 172.195ZM19.701 191.376C19.6217 191.334 19.582 191.273 19.582 191.194C19.582 191.133 19.624 191.054 19.708 190.956C19.7967 190.862 19.8923 190.734 19.995 190.571C20.1023 190.407 20.2003 190.202 20.289 189.955C20.3777 189.712 20.422 189.411 20.422 189.052C20.422 188.692 20.3707 188.375 20.268 188.1C20.1653 187.829 20.0253 187.6 19.848 187.414C19.6707 187.232 19.4653 187.092 19.232 186.994C18.9987 186.9 18.7537 186.854 18.497 186.854C18.161 186.854 17.8833 186.924 17.664 187.064C17.4447 187.208 17.258 187.397 17.104 187.631C16.95 187.864 16.8193 188.128 16.712 188.422C16.6093 188.72 16.5067 189.026 16.404 189.339C16.3013 189.651 16.187 189.955 16.061 190.249C15.9397 190.547 15.7857 190.813 15.599 191.047C15.4123 191.28 15.1813 191.467 14.906 191.607C14.6353 191.751 14.297 191.824 13.891 191.824C13.4757 191.824 13.0837 191.751 12.715 191.607C12.351 191.467 12.0337 191.261 11.763 190.991C11.4923 190.72 11.2777 190.389 11.119 189.997C10.965 189.605 10.888 189.157 10.888 188.653C10.888 187.999 11.0023 187.437 11.231 186.966C11.4643 186.494 11.7817 186.081 12.183 185.727L12.491 185.923C12.561 185.979 12.596 186.044 12.596 186.119C12.596 186.161 12.568 186.214 12.512 186.28C12.456 186.345 12.386 186.424 12.302 186.518C12.2227 186.611 12.134 186.723 12.036 186.854C11.9427 186.984 11.854 187.136 11.77 187.309C11.6907 187.481 11.623 187.68 11.567 187.904C11.511 188.128 11.483 188.382 11.483 188.667C11.483 189.059 11.5413 189.409 11.658 189.717C11.7793 190.025 11.9427 190.284 12.148 190.494C12.3533 190.708 12.596 190.872 12.876 190.984C13.1607 191.096 13.464 191.152 13.786 191.152C14.136 191.152 14.423 191.079 14.647 190.935C14.8757 190.795 15.0647 190.608 15.214 190.375C15.368 190.141 15.4963 189.875 15.599 189.577C15.7017 189.283 15.802 188.979 15.9 188.667C15.998 188.354 16.1077 188.048 16.229 187.75C16.3503 187.456 16.5043 187.192 16.691 186.959C16.8823 186.725 17.118 186.536 17.398 186.392C17.6827 186.252 18.0373 186.182 18.462 186.182C18.7933 186.182 19.113 186.245 19.421 186.371C19.729 186.497 19.9997 186.681 20.233 186.924C20.471 187.166 20.66 187.465 20.8 187.82C20.9447 188.179 21.017 188.587 21.017 189.045C21.017 189.558 20.9353 190.018 20.772 190.424C20.6087 190.834 20.359 191.208 20.023 191.544L19.701 191.376ZM11.595 204.209L11 204.195L11 198.259L20.905 198.259L20.905 204.195L20.31 204.195L20.31 198.98L16.306 198.98L16.306 203.32L15.725 203.32L15.725 198.98L11.595 198.98L11.595 204.209ZM16.012 213.016C16.012 213.454 16.0633 213.846 16.166 214.192C16.2733 214.542 16.425 214.836 16.621 215.074C16.817 215.316 17.0527 215.501 17.328 215.627C17.6033 215.753 17.9137 215.816 18.259 215.816C18.9637 215.816 19.4863 215.585 19.827 215.123C20.1677 214.665 20.338 213.996 20.338 213.114L20.338 211.301L16.012 211.301L16.012 213.016ZM11 217.412L11 216.796C11 216.716 11.0117 216.649 11.035 216.593C11.063 216.541 11.112 216.492 11.182 216.446L15.2 213.268C15.2513 213.23 15.2957 213.191 15.333 213.149C15.3703 213.111 15.3983 213.067 15.417 213.016C15.4403 212.969 15.4567 212.911 15.466 212.841C15.4753 212.775 15.48 212.694 15.48 212.596L15.48 211.301L11 211.301L11 210.58L20.905 210.58L20.905 213.114C20.905 214.252 20.6833 215.104 20.24 215.669C19.8013 216.238 19.155 216.523 18.301 216.523C17.923 216.523 17.5777 216.457 17.265 216.327C16.9523 216.196 16.677 216.007 16.439 215.76C16.2057 215.517 16.0143 215.221 15.865 214.871C15.7157 214.525 15.6153 214.136 15.564 213.702C15.494 213.814 15.4007 213.914 15.284 214.003L11 217.412ZM20.905 230.624L11 226.536L11 225.899L20.905 221.811L20.905 222.378C20.905 222.444 20.8863 222.497 20.849 222.539C20.8163 222.581 20.772 222.614 20.716 222.637L12.498 226.011C12.3953 226.049 12.2857 226.086 12.169 226.123C12.0523 226.161 11.9333 226.196 11.812 226.228C11.9333 226.256 12.0523 226.287 12.169 226.319C12.2857 226.352 12.3953 226.389 12.498 226.431L20.716 229.798C20.7673 229.817 20.8117 229.85 20.849 229.896C20.8863 229.943 20.905 229.999 20.905 230.064L20.905 230.624ZM11 237.187L11 236.466L20.905 236.466L20.905 237.187L11 237.187ZM12.666 251.464C12.666 251.51 12.6497 251.55 12.617 251.583L12.316 251.863C12.0967 251.657 11.8983 251.433 11.721 251.191C11.5483 250.953 11.399 250.689 11.273 250.4C11.1517 250.115 11.0583 249.8 10.993 249.455C10.923 249.114 10.888 248.738 10.888 248.328C10.888 247.642 11.007 247.012 11.245 246.438C11.4877 245.868 11.8283 245.378 12.267 244.968C12.7103 244.557 13.2447 244.237 13.87 244.009C14.4953 243.785 15.1907 243.673 15.956 243.673C16.7073 243.673 17.3933 243.789 18.014 244.023C18.6347 244.256 19.1667 244.583 19.61 245.003C20.058 245.423 20.4033 245.927 20.646 246.515C20.8933 247.103 21.017 247.751 21.017 248.461C21.017 249.137 20.912 249.737 20.702 250.26C20.492 250.782 20.1957 251.258 19.813 251.688L19.498 251.471C19.442 251.433 19.414 251.375 19.414 251.296C19.414 251.24 19.4653 251.149 19.568 251.023C19.6707 250.897 19.7827 250.722 19.904 250.498C20.03 250.274 20.1443 249.994 20.247 249.658C20.3497 249.326 20.401 248.927 20.401 248.461C20.401 247.863 20.2983 247.315 20.093 246.816C19.8877 246.321 19.5937 245.894 19.211 245.535C18.8283 245.18 18.3617 244.902 17.811 244.702C17.2603 244.501 16.642 244.401 15.956 244.401C15.256 244.401 14.6307 244.501 14.08 244.702C13.5293 244.907 13.0627 245.187 12.68 245.542C12.302 245.896 12.0103 246.314 11.805 246.795C11.6043 247.28 11.504 247.803 11.504 248.363C11.504 248.717 11.5273 249.032 11.574 249.308C11.6207 249.588 11.6907 249.844 11.784 250.078C11.8773 250.311 11.9917 250.528 12.127 250.729C12.2623 250.929 12.421 251.128 12.603 251.324C12.6217 251.347 12.6357 251.37 12.645 251.394C12.659 251.417 12.666 251.44 12.666 251.464ZM11.595 263.927L11 263.913L11 257.977L20.905 257.977L20.905 263.913L20.31 263.913L20.31 258.698L16.306 258.698L16.306 263.038L15.725 263.038L15.725 258.698L11.595 258.698L11.595 263.927ZM19.701 275.108C19.6217 275.066 19.582 275.005 19.582 274.926C19.582 274.865 19.624 274.786 19.708 274.688C19.7967 274.594 19.8923 274.466 19.995 274.303C20.1023 274.139 20.2003 273.934 20.289 273.687C20.3777 273.444 20.422 273.143 20.422 272.784C20.422 272.424 20.3707 272.107 20.268 271.832C20.1653 271.561 20.0253 271.332 19.848 271.146C19.6707 270.964 19.4653 270.824 19.232 270.726C18.9987 270.632 18.7537 270.586 18.497 270.586C18.161 270.586 17.8833 270.656 17.664 270.796C17.4447 270.94 17.258 271.129 17.104 271.363C16.95 271.596 16.8193 271.86 16.712 272.154C16.6093 272.452 16.5067 272.758 16.404 273.071C16.3013 273.383 16.187 273.687 16.061 273.981C15.9397 274.279 15.7857 274.545 15.599 274.779C15.4123 275.012 15.1813 275.199 14.906 275.339C14.6353 275.483 14.297 275.556 13.891 275.556C13.4757 275.556 13.0837 275.483 12.715 275.339C12.351 275.199 12.0337 274.993 11.763 274.723C11.4923 274.452 11.2777 274.121 11.119 273.729C10.965 273.337 10.888 272.889 10.888 272.385C10.888 271.731 11.0023 271.169 11.231 270.698C11.4643 270.226 11.7817 269.813 12.183 269.459L12.491 269.655C12.561 269.711 12.596 269.776 12.596 269.851C12.596 269.893 12.568 269.946 12.512 270.012C12.456 270.077 12.386 270.156 12.302 270.25C12.2227 270.343 12.134 270.455 12.036 270.586C11.9427 270.716 11.854 270.868 11.77 271.041C11.6907 271.213 11.623 271.412 11.567 271.636C11.511 271.86 11.483 272.114 11.483 272.399C11.483 272.791 11.5413 273.141 11.658 273.449C11.7793 273.757 11.9427 274.016 12.148 274.226C12.3533 274.44 12.596 274.604 12.876 274.716C13.1607 274.828 13.464 274.884 13.786 274.884C14.136 274.884 14.423 274.811 14.647 274.667C14.8757 274.527 15.0647 274.34 15.214 274.107C15.368 273.873 15.4963 273.607 15.599 273.309C15.7017 273.015 15.802 272.711 15.9 272.399C15.998 272.086 16.1077 271.78 16.229 271.482C16.3503 271.188 16.5043 270.924 16.691 270.691C16.8823 270.457 17.118 270.268 17.398 270.124C17.6827 269.984 18.0373 269.914 18.462 269.914C18.7933 269.914 19.113 269.977 19.421 270.103C19.729 270.229 19.9997 270.413 20.233 270.656C20.471 270.898 20.66 271.197 20.8 271.552C20.9447 271.911 21.017 272.319 21.017 272.777C21.017 273.29 20.9353 273.75 20.772 274.156C20.6087 274.566 20.359 274.94 20.023 275.276L19.701 275.108Z" fill="#008088"/>
<rect width="1" height="11" fill="#EC6C00"/>
<rect y="15" width="1" height="4" fill="#EC6C00"/>
</svg>
