<svg width="237" height="21" viewBox="0 0 237 21" fill="none" xmlns="http://www.w3.org/2000/svg">
<path d="M5.892 10.478V11H1.254V2.51001H1.872V10.478H5.892ZM17.9507 6.75202C17.9507 7.40802 17.8527 8.00402 17.6567 8.54002C17.4607 9.07202 17.1847 9.52802 16.8287 9.90802C16.4727 10.284 16.0447 10.576 15.5447 10.784C15.0487 10.988 14.5007 11.09 13.9007 11.09C13.3007 11.09 12.7527 10.988 12.2567 10.784C11.7607 10.576 11.3347 10.284 10.9787 9.90802C10.6227 9.52802 10.3467 9.07202 10.1507 8.54002C9.95469 8.00402 9.85669 7.40802 9.85669 6.75202C9.85669 6.10002 9.95469 5.50801 10.1507 4.97601C10.3467 4.44002 10.6227 3.98401 10.9787 3.60801C11.3347 3.22801 11.7607 2.93402 12.2567 2.72601C12.7527 2.51801 13.3007 2.41401 13.9007 2.41401C14.5007 2.41401 15.0487 2.51801 15.5447 2.72601C16.0447 2.93001 16.4727 3.22201 16.8287 3.60202C17.1847 3.98202 17.4607 4.44002 17.6567 4.97601C17.8527 5.50801 17.9507 6.10002 17.9507 6.75202ZM17.3147 6.75202C17.3147 6.16001 17.2327 5.62801 17.0687 5.15602C16.9047 4.68402 16.6727 4.28402 16.3727 3.95602C16.0727 3.62802 15.7127 3.37802 15.2927 3.20602C14.8727 3.03001 14.4087 2.94201 13.9007 2.94201C13.3967 2.94201 12.9347 3.03001 12.5147 3.20602C12.0947 3.37802 11.7327 3.62802 11.4287 3.95602C11.1287 4.28402 10.8947 4.68402 10.7267 5.15602C10.5627 5.62801 10.4807 6.16001 10.4807 6.75202C10.4807 7.34802 10.5627 7.88202 10.7267 8.35402C10.8947 8.82202 11.1287 9.22002 11.4287 9.54802C11.7327 9.87602 12.0947 10.126 12.5147 10.298C12.9347 10.47 13.3967 10.556 13.9007 10.556C14.4087 10.556 14.8727 10.47 15.2927 10.298C15.7127 10.126 16.0727 9.87602 16.3727 9.54802C16.6727 9.22002 16.9047 8.82202 17.0687 8.35402C17.2327 7.88202 17.3147 7.34802 17.3147 6.75202ZM30.0529 2.51001V11H29.7649C29.7129 11 29.6689 10.992 29.6329 10.976C29.6009 10.956 29.5689 10.924 29.5369 10.88L24.0229 3.51202C24.0349 3.63201 24.0409 3.74601 24.0409 3.85401V11H23.5009V2.51001H23.8069C23.8629 2.51001 23.9049 2.51801 23.9329 2.53402C23.9649 2.54601 23.9989 2.57601 24.0349 2.62402L29.5369 9.97402C29.5249 9.85402 29.5189 9.74002 29.5189 9.63202V2.51001H30.0529ZM42.9395 7.14802V10.166C42.5155 10.466 42.0635 10.696 41.5835 10.856C41.1035 11.016 40.5635 11.096 39.9635 11.096C39.2915 11.096 38.6875 10.994 38.1515 10.79C37.6155 10.582 37.1575 10.29 36.7775 9.91402C36.4015 9.53402 36.1115 9.07602 35.9075 8.54002C35.7075 8.00402 35.6075 7.40802 35.6075 6.75202C35.6075 6.09602 35.7055 5.50202 35.9015 4.97002C36.1015 4.43402 36.3855 3.97801 36.7535 3.60202C37.1255 3.22201 37.5735 2.93001 38.0975 2.72601C38.6215 2.51801 39.2115 2.41401 39.8675 2.41401C40.1915 2.41401 40.4895 2.43601 40.7615 2.48001C41.0375 2.52401 41.2935 2.59001 41.5295 2.67801C41.7655 2.76201 41.9855 2.86801 42.1895 2.99601C42.3935 3.12001 42.5895 3.26401 42.7775 3.42801L42.6095 3.69201C42.5535 3.78802 42.4695 3.81002 42.3575 3.75802C42.2975 3.73401 42.2115 3.67801 42.0995 3.59002C41.9875 3.50201 41.8335 3.41001 41.6375 3.31402C41.4415 3.21801 41.1975 3.13201 40.9055 3.05601C40.6175 2.98001 40.2655 2.94201 39.8495 2.94201C39.2975 2.94201 38.7975 3.03001 38.3495 3.20602C37.9055 3.38201 37.5255 3.63401 37.2095 3.96201C36.8975 4.29001 36.6555 4.69001 36.4835 5.16201C36.3155 5.63402 36.2315 6.16402 36.2315 6.75202C36.2315 7.34802 36.3155 7.88402 36.4835 8.36002C36.6555 8.83602 36.9015 9.24002 37.2215 9.57202C37.5455 9.90402 37.9375 10.158 38.3975 10.334C38.8575 10.51 39.3755 10.598 39.9515 10.598C40.2035 10.598 40.4355 10.582 40.6475 10.55C40.8635 10.518 41.0675 10.474 41.2595 10.418C41.4555 10.358 41.6435 10.286 41.8235 10.202C42.0075 10.114 42.1935 10.016 42.3815 9.90802V7.62202H40.7555C40.7115 7.62202 40.6735 7.60802 40.6415 7.58001C40.6135 7.55202 40.5995 7.52002 40.5995 7.48402V7.14802H42.9395ZM60.5982 3.03201H57.6162V11H56.9982V3.03201H53.9982V2.51001H60.5982V3.03201ZM70.7274 10.49L70.7154 11H65.6274V2.51001H70.7154V3.02002H66.2454V6.45202H69.9654V6.95002H66.2454V10.49H70.7274ZM78.2764 6.70402C78.6524 6.70402 78.9884 6.66002 79.2844 6.57202C79.5844 6.48002 79.8364 6.35002 80.0404 6.18202C80.2484 6.01402 80.4064 5.81202 80.5144 5.57601C80.6224 5.34001 80.6764 5.07401 80.6764 4.77801C80.6764 4.17401 80.4784 3.72601 80.0824 3.43402C79.6904 3.14201 79.1164 2.99601 78.3604 2.99601H76.8064V6.70402H78.2764ZM82.0444 11H81.5164C81.4484 11 81.3904 10.99 81.3424 10.97C81.2984 10.946 81.2564 10.904 81.2164 10.844L78.4924 7.40002C78.4604 7.35602 78.4264 7.31802 78.3904 7.28602C78.3584 7.25402 78.3204 7.23002 78.2764 7.21402C78.2364 7.19402 78.1864 7.18002 78.1264 7.17202C78.0704 7.16402 78.0004 7.16001 77.9164 7.16001H76.8064V11H76.1884V2.51001H78.3604C79.3364 2.51001 80.0664 2.70001 80.5504 3.08001C81.0384 3.45601 81.2824 4.01001 81.2824 4.74201C81.2824 5.06601 81.2264 5.36201 81.1144 5.63002C81.0024 5.89801 80.8404 6.13401 80.6284 6.33802C80.4204 6.53802 80.1664 6.70201 79.8664 6.83001C79.5704 6.95801 79.2364 7.04402 78.8644 7.08802C78.9604 7.14802 79.0464 7.22802 79.1224 7.32801L82.0444 11ZM95.4654 2.51001V11H94.9314V3.76401C94.9314 3.66001 94.9374 3.55001 94.9494 3.43402L91.6074 9.36802C91.5514 9.47202 91.4714 9.52402 91.3674 9.52402H91.2714C91.1674 9.52402 91.0874 9.47202 91.0314 9.36802L87.5994 3.42202C87.6114 3.54202 87.6174 3.65601 87.6174 3.76401V11H87.0774V2.51001H87.5034C87.5594 2.51001 87.6034 2.51601 87.6354 2.52801C87.6674 2.54001 87.6994 2.57202 87.7314 2.62402L91.1574 8.52802C91.2174 8.64002 91.2694 8.76002 91.3134 8.88802C91.3374 8.82402 91.3634 8.76202 91.3914 8.70202C91.4194 8.63802 91.4494 8.57802 91.4814 8.52202L94.8114 2.62402C94.8434 2.57202 94.8754 2.54001 94.9074 2.52801C94.9434 2.51601 94.9894 2.51001 95.0454 2.51001H95.4654ZM114.56 9.57202C114.6 9.57202 114.634 9.58602 114.662 9.61402L114.902 9.87202C114.726 10.06 114.534 10.23 114.326 10.382C114.122 10.53 113.896 10.658 113.648 10.766C113.404 10.87 113.134 10.95 112.838 11.006C112.546 11.066 112.224 11.096 111.872 11.096C111.284 11.096 110.744 10.994 110.252 10.79C109.764 10.582 109.344 10.29 108.992 9.91402C108.64 9.53402 108.366 9.07602 108.17 8.54002C107.978 8.00402 107.882 7.40802 107.882 6.75202C107.882 6.10802 107.982 5.52002 108.182 4.98801C108.382 4.45601 108.662 4.00001 109.022 3.62002C109.382 3.23601 109.814 2.94001 110.318 2.73202C110.822 2.52001 111.378 2.41401 111.986 2.41401C112.566 2.41401 113.08 2.50401 113.528 2.68402C113.976 2.86401 114.384 3.11801 114.752 3.44601L114.566 3.71601C114.534 3.76401 114.484 3.78802 114.416 3.78802C114.368 3.78802 114.29 3.74401 114.182 3.65601C114.074 3.56801 113.924 3.47201 113.732 3.36801C113.54 3.26002 113.3 3.16201 113.012 3.07401C112.728 2.98601 112.386 2.94201 111.986 2.94201C111.474 2.94201 111.004 3.03001 110.576 3.20602C110.152 3.38201 109.786 3.63401 109.478 3.96201C109.174 4.29001 108.936 4.69001 108.764 5.16201C108.592 5.63402 108.506 6.16402 108.506 6.75202C108.506 7.35202 108.592 7.88802 108.764 8.36002C108.94 8.83202 109.18 9.23202 109.484 9.56002C109.788 9.88402 110.146 10.134 110.558 10.31C110.974 10.482 111.422 10.568 111.902 10.568C112.206 10.568 112.476 10.548 112.712 10.508C112.952 10.468 113.172 10.408 113.372 10.328C113.572 10.248 113.758 10.15 113.93 10.034C114.102 9.91802 114.272 9.78202 114.44 9.62602C114.46 9.61002 114.48 9.59802 114.5 9.59002C114.52 9.57802 114.54 9.57202 114.56 9.57202ZM124.721 7.91602L122.993 3.62601C122.933 3.48601 122.875 3.31801 122.819 3.12201C122.795 3.21801 122.769 3.31001 122.741 3.39801C122.713 3.48201 122.683 3.56001 122.651 3.63201L120.923 7.91602H124.721ZM126.599 11H126.125C126.069 11 126.023 10.986 125.987 10.958C125.951 10.926 125.923 10.886 125.903 10.838L124.907 8.37202H120.737L119.741 10.838C119.725 10.882 119.697 10.92 119.657 10.952C119.617 10.984 119.569 11 119.513 11H119.045L122.519 2.51001H123.125L126.599 11ZM133.694 6.70402C134.07 6.70402 134.406 6.66002 134.702 6.57202C135.002 6.48002 135.254 6.35002 135.458 6.18202C135.666 6.01402 135.824 5.81202 135.932 5.57601C136.04 5.34001 136.094 5.07401 136.094 4.77801C136.094 4.17401 135.896 3.72601 135.5 3.43402C135.108 3.14201 134.534 2.99601 133.778 2.99601H132.224V6.70402H133.694ZM137.462 11H136.934C136.866 11 136.808 10.99 136.76 10.97C136.716 10.946 136.674 10.904 136.634 10.844L133.91 7.40002C133.878 7.35602 133.844 7.31802 133.808 7.28602C133.776 7.25402 133.738 7.23002 133.694 7.21402C133.654 7.19402 133.604 7.18002 133.544 7.17202C133.488 7.16402 133.418 7.16001 133.334 7.16001H132.224V11H131.606V2.51001H133.778C134.754 2.51001 135.484 2.70001 135.968 3.08001C136.456 3.45601 136.7 4.01001 136.7 4.74201C136.7 5.06601 136.644 5.36201 136.532 5.63002C136.42 5.89801 136.258 6.13401 136.046 6.33802C135.838 6.53802 135.584 6.70201 135.284 6.83001C134.988 6.95801 134.654 7.04402 134.282 7.08802C134.378 7.14802 134.464 7.22802 134.54 7.32801L137.462 11ZM147.595 10.49L147.583 11H142.495V2.51001H147.583V3.02002H143.113V6.45202H146.833V6.95002H143.113V10.49H147.595ZM164.036 3.54202C164 3.61001 163.948 3.64401 163.88 3.64401C163.828 3.64401 163.76 3.60801 163.676 3.53601C163.596 3.46002 163.486 3.37802 163.346 3.29001C163.206 3.19801 163.03 3.11401 162.818 3.03802C162.61 2.96201 162.352 2.92401 162.044 2.92401C161.736 2.92401 161.464 2.96801 161.228 3.05601C160.996 3.14401 160.8 3.26401 160.64 3.41601C160.484 3.56801 160.364 3.74401 160.28 3.94402C160.2 4.14402 160.16 4.35401 160.16 4.57401C160.16 4.86201 160.22 5.10001 160.34 5.28802C160.464 5.47602 160.626 5.63602 160.826 5.76802C161.026 5.90001 161.252 6.01201 161.504 6.10401C161.76 6.19202 162.022 6.28002 162.29 6.36802C162.558 6.45601 162.818 6.55401 163.07 6.66201C163.326 6.76602 163.554 6.89802 163.754 7.05802C163.954 7.21802 164.114 7.41602 164.234 7.65202C164.358 7.88402 164.42 8.17402 164.42 8.52202C164.42 8.87802 164.358 9.21402 164.234 9.53002C164.114 9.84202 163.938 10.114 163.706 10.346C163.474 10.578 163.19 10.762 162.854 10.898C162.518 11.03 162.134 11.096 161.702 11.096C161.142 11.096 160.66 10.998 160.256 10.802C159.852 10.602 159.498 10.33 159.194 9.98602L159.362 9.72202C159.41 9.66202 159.466 9.63202 159.53 9.63202C159.566 9.63202 159.612 9.65602 159.668 9.70402C159.724 9.75202 159.792 9.81202 159.872 9.88402C159.952 9.95202 160.048 10.028 160.16 10.112C160.272 10.192 160.402 10.268 160.55 10.34C160.698 10.408 160.868 10.466 161.06 10.514C161.252 10.562 161.47 10.586 161.714 10.586C162.05 10.586 162.35 10.536 162.614 10.436C162.878 10.332 163.1 10.192 163.28 10.016C163.464 9.84002 163.604 9.63202 163.7 9.39202C163.796 9.14802 163.844 8.88802 163.844 8.61202C163.844 8.31202 163.782 8.06602 163.658 7.87402C163.538 7.67801 163.378 7.51601 163.178 7.38801C162.978 7.25601 162.75 7.14602 162.494 7.05802C162.242 6.97002 161.982 6.88402 161.714 6.80001C161.446 6.71602 161.184 6.62202 160.928 6.51802C160.676 6.41401 160.45 6.28201 160.25 6.12202C160.05 5.95802 159.888 5.75602 159.764 5.51602C159.644 5.27202 159.584 4.96801 159.584 4.60401C159.584 4.32001 159.638 4.04601 159.746 3.78201C159.854 3.51801 160.012 3.28602 160.22 3.08602C160.428 2.88201 160.684 2.72001 160.988 2.60001C161.296 2.47601 161.646 2.41401 162.038 2.41401C162.478 2.41401 162.872 2.48401 163.22 2.62402C163.572 2.76401 163.892 2.97801 164.18 3.26602L164.036 3.54202ZM175.036 10.49L175.024 11H169.936V2.51001H175.024V3.02002H170.554V6.45202H174.274V6.95002H170.554V10.49H175.036ZM182.585 6.70402C182.961 6.70402 183.297 6.66002 183.593 6.57202C183.893 6.48002 184.145 6.35002 184.349 6.18202C184.557 6.01402 184.715 5.81202 184.823 5.57601C184.931 5.34001 184.985 5.07401 184.985 4.77801C184.985 4.17401 184.787 3.72601 184.391 3.43402C183.999 3.14201 183.425 2.99601 182.669 2.99601H181.115V6.70402H182.585ZM186.353 11H185.825C185.757 11 185.699 10.99 185.651 10.97C185.607 10.946 185.565 10.904 185.525 10.844L182.801 7.40002C182.769 7.35602 182.735 7.31802 182.699 7.28602C182.667 7.25402 182.629 7.23002 182.585 7.21402C182.545 7.19402 182.495 7.18002 182.435 7.17202C182.379 7.16402 182.309 7.16001 182.225 7.16001H181.115V11H180.497V2.51001H182.669C183.645 2.51001 184.375 2.70001 184.859 3.08001C185.347 3.45601 185.591 4.01001 185.591 4.74201C185.591 5.06601 185.535 5.36201 185.423 5.63002C185.311 5.89801 185.149 6.13401 184.937 6.33802C184.729 6.53802 184.475 6.70201 184.175 6.83001C183.879 6.95801 183.545 7.04402 183.173 7.08802C183.269 7.14802 183.355 7.22802 183.431 7.32801L186.353 11ZM197.678 2.51001L194.174 11H193.628L190.124 2.51001H190.61C190.666 2.51001 190.712 2.52601 190.748 2.55801C190.784 2.58601 190.812 2.62401 190.832 2.67202L193.724 9.71602C193.756 9.80402 193.788 9.89802 193.82 9.99802C193.852 10.098 193.882 10.2 193.91 10.304C193.934 10.2 193.96 10.098 193.988 9.99802C194.016 9.89802 194.048 9.80402 194.084 9.71602L196.97 2.67202C196.986 2.62802 197.014 2.59001 197.054 2.55801C197.094 2.52601 197.142 2.51001 197.198 2.51001H197.678ZM203.303 11H202.685V2.51001H203.303V11ZM215.54 9.57202C215.58 9.57202 215.614 9.58602 215.642 9.61402L215.882 9.87202C215.706 10.06 215.514 10.23 215.306 10.382C215.102 10.53 214.876 10.658 214.628 10.766C214.384 10.87 214.114 10.95 213.818 11.006C213.526 11.066 213.204 11.096 212.852 11.096C212.264 11.096 211.724 10.994 211.232 10.79C210.744 10.582 210.324 10.29 209.972 9.91402C209.62 9.53402 209.346 9.07602 209.15 8.54002C208.958 8.00402 208.862 7.40802 208.862 6.75202C208.862 6.10802 208.962 5.52002 209.162 4.98801C209.362 4.45601 209.642 4.00001 210.002 3.62002C210.362 3.23601 210.794 2.94001 211.298 2.73202C211.802 2.52001 212.358 2.41401 212.966 2.41401C213.546 2.41401 214.06 2.50401 214.508 2.68402C214.956 2.86401 215.364 3.11801 215.732 3.44601L215.546 3.71601C215.514 3.76401 215.464 3.78802 215.396 3.78802C215.348 3.78802 215.27 3.74401 215.162 3.65601C215.054 3.56801 214.904 3.47201 214.712 3.36801C214.52 3.26002 214.28 3.16201 213.992 3.07401C213.708 2.98601 213.366 2.94201 212.966 2.94201C212.454 2.94201 211.984 3.03001 211.556 3.20602C211.132 3.38201 210.766 3.63401 210.458 3.96201C210.154 4.29001 209.916 4.69001 209.744 5.16201C209.572 5.63402 209.486 6.16402 209.486 6.75202C209.486 7.35202 209.572 7.88802 209.744 8.36002C209.92 8.83202 210.16 9.23202 210.464 9.56002C210.768 9.88402 211.126 10.134 211.538 10.31C211.954 10.482 212.402 10.568 212.882 10.568C213.186 10.568 213.456 10.548 213.692 10.508C213.932 10.468 214.152 10.408 214.352 10.328C214.552 10.248 214.738 10.15 214.91 10.034C215.082 9.91802 215.252 9.78202 215.42 9.62602C215.44 9.61002 215.46 9.59802 215.48 9.59002C215.5 9.57802 215.52 9.57202 215.54 9.57202ZM226.224 10.49L226.212 11H221.124V2.51001H226.212V3.02002H221.742V6.45202H225.462V6.95002H221.742V10.49H226.224ZM235.806 3.54202C235.77 3.61001 235.718 3.64401 235.65 3.64401C235.598 3.64401 235.53 3.60801 235.446 3.53601C235.366 3.46002 235.256 3.37802 235.116 3.29001C234.976 3.19801 234.8 3.11401 234.588 3.03802C234.38 2.96201 234.122 2.92401 233.814 2.92401C233.506 2.92401 233.234 2.96801 232.998 3.05601C232.766 3.14401 232.57 3.26401 232.41 3.41601C232.254 3.56801 232.134 3.74401 232.05 3.94402C231.97 4.14402 231.93 4.35401 231.93 4.57401C231.93 4.86201 231.99 5.10001 232.11 5.28802C232.234 5.47602 232.396 5.63602 232.596 5.76802C232.796 5.90001 233.022 6.01201 233.274 6.10401C233.53 6.19202 233.792 6.28002 234.06 6.36802C234.328 6.45601 234.588 6.55401 234.84 6.66201C235.096 6.76602 235.324 6.89802 235.524 7.05802C235.724 7.21802 235.884 7.41602 236.004 7.65202C236.128 7.88402 236.19 8.17402 236.19 8.52202C236.19 8.87802 236.128 9.21402 236.004 9.53002C235.884 9.84202 235.708 10.114 235.476 10.346C235.244 10.578 234.96 10.762 234.624 10.898C234.288 11.03 233.904 11.096 233.472 11.096C232.912 11.096 232.43 10.998 232.026 10.802C231.622 10.602 231.268 10.33 230.964 9.98602L231.132 9.72202C231.18 9.66202 231.236 9.63202 231.3 9.63202C231.336 9.63202 231.382 9.65602 231.438 9.70402C231.494 9.75202 231.562 9.81202 231.642 9.88402C231.722 9.95202 231.818 10.028 231.93 10.112C232.042 10.192 232.172 10.268 232.32 10.34C232.468 10.408 232.638 10.466 232.83 10.514C233.022 10.562 233.24 10.586 233.484 10.586C233.82 10.586 234.12 10.536 234.384 10.436C234.648 10.332 234.87 10.192 235.05 10.016C235.234 9.84002 235.374 9.63202 235.47 9.39202C235.566 9.14802 235.614 8.88802 235.614 8.61202C235.614 8.31202 235.552 8.06602 235.428 7.87402C235.308 7.67801 235.148 7.51601 234.948 7.38801C234.748 7.25601 234.52 7.14602 234.264 7.05802C234.012 6.97002 233.752 6.88402 233.484 6.80001C233.216 6.71602 232.954 6.62202 232.698 6.51802C232.446 6.41401 232.22 6.28201 232.02 6.12202C231.82 5.95802 231.658 5.75602 231.534 5.51602C231.414 5.27202 231.354 4.96801 231.354 4.60401C231.354 4.32001 231.408 4.04601 231.516 3.78201C231.624 3.51801 231.782 3.28602 231.99 3.08602C232.198 2.88201 232.454 2.72001 232.758 2.60001C233.066 2.47601 233.416 2.41401 233.808 2.41401C234.248 2.41401 234.642 2.48401 234.99 2.62402C235.342 2.76401 235.662 2.97801 235.95 3.26602L235.806 3.54202Z" fill="#008088"/>
<rect y="21" width="1" height="11" transform="rotate(-90 0 21)" fill="#EC6C00"/>
<rect x="15" y="21" width="1" height="4" transform="rotate(-90 15 21)" fill="#EC6C00"/>
</svg>
